<?xml version="1.0" standalone="no"?>
<!DOCTYPE svg PUBLIC "-//W3C//DTD SVG 20010904//EN"
 "http://www.w3.org/TR/2001/REC-SVG-20010904/DTD/svg10.dtd">
<svg version="1.0" xmlns="http://www.w3.org/2000/svg"
 width="700.000000pt" height="700.000000pt" viewBox="0 0 700.000000 700.000000"
 preserveAspectRatio="xMidYMid meet">
<metadata>
Created by potrace 1.14, written by Peter Selinger 2001-2017
</metadata>
<g transform="translate(0.000000,700.000000) scale(0.100000,-0.100000)"
fill="#000000" stroke="none">
<path d="M1048 5983 c-6 -7 -7 -13 -3 -13 4 0 2 -6 -4 -13 -6 -8 -8 -17 -4
-21 12 -12 12 -36 0 -36 -8 0 -8 -3 -2 -8 6 -4 11 -16 11 -27 0 -11 -5 -23
-11 -27 -6 -5 -6 -8 2 -8 12 0 12 -17 0 -37 -4 -6 -3 -14 3 -18 5 -3 10 -15
10 -26 0 -16 3 -18 19 -9 13 7 22 7 26 0 4 -7 13 -6 27 1 14 8 23 8 31 0 7 -7
16 -7 30 0 13 8 22 8 30 0 7 -7 16 -7 30 0 13 8 22 8 30 0 7 -7 16 -7 30 0 13
8 22 8 30 0 7 -7 16 -7 30 0 13 8 22 8 30 0 7 -7 16 -7 30 0 13 8 22 8 30 0 7
-7 16 -7 30 0 13 8 22 8 30 0 7 -7 16 -7 30 0 13 8 22 8 30 0 7 -7 16 -7 30 0
13 8 22 8 30 0 7 -7 16 -7 30 0 13 8 22 8 30 0 7 -7 16 -7 30 0 13 8 22 8 30
0 7 -7 16 -7 30 0 13 8 22 8 30 0 7 -7 16 -7 30 0 13 8 22 8 30 0 7 -7 16 -7
30 0 13 8 22 8 30 0 7 -7 16 -7 30 0 13 8 22 8 30 0 7 -7 16 -7 30 0 13 8 22
8 30 0 7 -7 16 -7 30 0 13 8 22 8 30 0 7 -7 16 -7 30 0 13 8 22 8 30 0 7 -7
16 -7 30 0 13 8 22 8 30 0 7 -7 16 -7 30 0 13 8 22 8 30 0 7 -7 16 -7 30 0 13
8 22 8 30 0 7 -7 16 -7 29 0 13 7 23 7 31 0 7 -5 18 -7 24 -3 14 9 1411 8
1419 -1 4 -3 16 -2 26 4 14 8 23 8 31 0 7 -7 16 -7 30 0 13 8 22 8 30 0 7 -7
16 -7 30 0 13 8 22 8 30 0 7 -7 16 -7 30 0 13 8 22 8 30 0 7 -7 16 -7 30 0 13
8 22 8 30 0 7 -7 16 -7 30 0 13 8 22 8 30 0 7 -7 16 -7 30 0 13 8 22 8 30 0 7
-7 16 -7 30 0 13 8 22 8 30 0 7 -7 16 -7 30 0 13 8 22 8 30 0 7 -7 16 -7 30 0
13 8 22 8 30 0 7 -7 16 -7 30 0 13 8 22 8 30 0 7 -7 16 -7 30 0 13 8 22 8 30
0 7 -7 16 -7 30 0 13 8 22 8 30 0 7 -7 16 -7 30 0 13 8 22 8 30 0 7 -7 16 -7
30 0 13 8 22 8 30 0 7 -7 16 -7 30 0 13 8 22 8 30 0 7 -7 16 -7 30 0 13 8 22
8 30 0 7 -7 16 -7 30 0 13 8 22 8 30 0 7 -7 16 -7 30 0 13 8 22 8 30 0 7 -7
16 -7 30 0 13 8 22 8 30 0 7 -7 16 -7 30 0 13 8 22 8 30 0 7 -7 16 -7 30 0 13
8 22 8 30 0 7 -7 16 -7 30 0 13 8 22 8 30 0 7 -7 16 -7 30 0 13 8 22 8 30 0 7
-7 16 -7 30 0 13 8 22 8 30 0 7 -7 16 -7 30 0 13 8 22 8 30 0 7 -7 16 -7 30 0
13 8 22 8 30 0 7 -7 16 -7 29 0 13 7 23 7 31 0 7 -5 18 -7 24 -3 15 10 141 7
150 -2 4 -4 8 -881 8 -1949 0 -1130 4 -1948 9 -1956 6 -9 5 -12 -1 -8 -13 8
-12 -132 1 -152 6 -9 5 -12 -1 -8 -13 8 -12 -132 1 -152 6 -9 5 -12 -1 -8 -13
8 -12 -132 1 -152 6 -10 6 -12 -3 -7 -8 5 -12 3 -10 -5 1 -8 1 -19 0 -25 -1
-12 -199 -12 -220 0 -8 6 -12 5 -8 0 7 -12 -773 -12 -792 0 -8 6 -12 5 -8 0 7
-12 -453 -12 -472 0 -8 6 -12 5 -8 0 6 -11 -382 -12 -399 -2 -6 4 -14 4 -18 0
-10 -9 -136 -10 -142 0 -3 5 -11 5 -17 1 -16 -10 -137 -11 -143 -1 -3 5 -11 5
-17 1 -17 -11 -130 -11 -144 -1 -6 5 -13 5 -16 1 -7 -11 -518 -10 -536 1 -8 6
-12 5 -8 0 7 -12 -453 -12 -472 0 -8 6 -12 5 -8 0 6 -11 -382 -12 -399 -2 -6
4 -14 4 -18 0 -10 -9 -136 -10 -142 0 -3 5 -11 5 -17 1 -16 -10 -137 -11 -143
-1 -3 5 -11 5 -17 1 -17 -11 -130 -11 -144 -1 -6 5 -14 5 -17 0 -8 -13 -101
-6 -99 7 2 6 -1 11 -5 11 -10 0 -9 30 2 48 4 6 3 12 -3 12 -10 0 -7 31 4 50 3
6 2 10 -3 10 -10 0 -8 42 2 59 4 5 2 12 -4 16 -7 4 -7 12 0 26 6 10 7 19 2 19
-10 0 -9 30 2 48 4 6 3 12 -3 12 -10 0 -7 31 4 50 3 6 2 10 -3 10 -10 0 -9 30
2 48 4 6 3 12 -3 12 -10 0 -7 31 4 50 3 6 1 10 -5 10 -7 0 -8 6 -1 19 6 10 8
21 4 24 -10 11 -12 57 -2 63 5 3 6 11 2 17 -12 19 -12 36 -2 43 6 4 6 10 0 17
-14 18 -14 29 1 38 8 6 9 9 1 9 -12 0 -12 17 0 37 4 6 3 14 -2 17 -10 7 -9 31
2 42 4 4 3 12 -2 18 -14 17 -14 28 1 37 8 6 9 9 1 9 -12 0 -12 17 0 37 4 6 3
14 -2 17 -10 7 -9 31 2 42 4 4 3 12 -2 18 -14 17 -14 28 1 37 8 6 9 9 1 9 -12
0 -12 17 0 37 4 6 3 14 -2 17 -10 7 -9 25 2 42 3 6 3 14 0 18 -12 12 -12 36 0
36 8 0 8 3 2 8 -12 8 -13 22 -2 39 4 6 3 14 -2 17 -10 7 -9 25 2 42 3 6 3 14
0 18 -12 12 -12 36 0 36 8 0 8 3 2 8 -12 8 -13 22 -2 39 4 6 3 14 -2 17 -10 7
-9 25 2 42 3 6 3 14 0 18 -12 12 -12 36 0 36 8 0 8 3 2 8 -12 8 -13 22 -2 39
4 6 3 14 -2 17 -10 7 -9 25 2 42 3 6 3 14 0 18 -12 12 -12 36 0 36 8 0 8 3 2
8 -12 8 -13 22 -2 39 4 6 3 14 -2 17 -10 7 -9 25 2 42 3 6 3 14 0 18 -11 10
-12 36 -2 36 5 0 4 11 -1 25 -7 18 -6 25 3 25 7 0 8 3 2 8 -12 8 -13 42 -2 60
5 6 4 12 0 12 -5 0 -9 9 -9 20 0 11 5 20 11 20 6 0 7 3 0 8 -13 9 -15 52 -3
52 5 0 6 6 1 13 -11 17 -10 41 2 49 7 5 6 8 0 8 -12 0 -13 40 -1 58 4 7 3 12
-1 12 -5 0 -9 9 -9 20 0 11 5 20 11 20 6 0 7 3 0 8 -13 9 -15 52 -3 52 5 0 6
6 1 13 -11 17 -10 41 2 49 7 5 6 8 0 8 -12 0 -13 40 -1 58 4 7 3 12 -1 12 -5
0 -9 9 -9 20 0 11 5 20 11 20 6 0 7 3 0 8 -13 9 -14 52 -1 52 6 0 6 4 -2 12
-7 7 -8 17 -2 29 7 11 7 20 0 24 -5 3 -6 15 0 29 4 12 4 29 0 36 -5 8 -5 21 0
31 5 9 6 20 2 24 -4 3 -7 12 -7 18 0 7 -9 12 -20 12 -11 0 -26 4 -34 9 -11 7
-12 6 -6 -5 8 -12 6 -12 -8 0 -9 7 -17 9 -17 5 0 -11 -80 -11 -97 -1 -6 4 -15
2 -19 -4 -4 -8 -9 -7 -15 2 -6 10 -9 11 -9 2 0 -7 1 -15 3 -16 1 -2 -4 -11
-12 -20 -9 -11 -10 -17 -2 -17 13 0 10 -22 -4 -32 -6 -5 -6 -8 2 -8 11 0 10
-30 -2 -49 -3 -5 -1 -12 4 -15 10 -7 9 -25 -2 -43 -5 -8 -4 -13 2 -13 13 0 10
-22 -4 -32 -7 -5 -6 -8 1 -8 12 0 12 -49 0 -68 -4 -7 -2 -12 3 -12 13 0 10
-22 -4 -32 -6 -5 -6 -8 2 -8 12 0 12 -17 0 -37 -4 -6 -3 -14 2 -18 13 -7 10
-45 -4 -45 -6 0 -7 -3 0 -8 14 -10 17 -32 5 -32 -7 0 -7 -6 -1 -18 7 -13 6
-23 -1 -30 -8 -8 -8 -12 -2 -12 6 0 11 -7 11 -15 0 -8 -5 -15 -11 -15 -6 0 -5
-4 2 -9 17 -11 17 -21 0 -32 -7 -5 -8 -9 -2 -9 6 0 10 -13 10 -30 0 -16 -4
-30 -10 -30 -7 0 -8 -3 -1 -8 14 -10 17 -32 5 -32 -7 0 -7 -6 -1 -18 7 -13 6
-23 -1 -30 -9 -9 -9 -12 0 -12 14 0 12 -21 -3 -32 -6 -5 -6 -8 2 -8 12 0 12
-17 0 -37 -4 -6 -3 -14 2 -18 13 -7 10 -45 -4 -45 -6 0 -7 -3 0 -8 14 -10 17
-32 5 -32 -7 0 -7 -6 -1 -18 7 -13 6 -23 -1 -30 -8 -8 -8 -12 -2 -12 6 0 11
-7 11 -15 0 -8 -5 -15 -11 -15 -6 0 -5 -4 2 -9 8 -4 14 -12 14 -16 0 -4 -6
-12 -14 -16 -7 -5 -8 -9 -2 -9 6 0 10 -13 10 -30 0 -16 -4 -30 -10 -30 -6 0
-5 -4 2 -9 8 -4 14 -12 14 -16 0 -4 -6 -12 -14 -16 -7 -5 -8 -9 -2 -9 6 0 11
-7 11 -15 0 -8 -5 -15 -11 -15 -7 0 -7 -3 -1 -8 14 -10 17 -32 5 -32 -7 0 -7
-6 -1 -18 7 -13 6 -23 -1 -30 -8 -8 -8 -12 -2 -12 6 0 11 -7 11 -15 0 -8 -5
-15 -11 -15 -6 0 -5 -4 2 -9 8 -4 14 -12 14 -16 0 -4 -6 -12 -14 -16 -7 -5 -8
-9 -2 -9 6 0 10 -13 10 -30 0 -16 -4 -30 -10 -30 -6 0 -5 -4 2 -9 8 -4 14 -12
14 -16 0 -4 -6 -12 -14 -16 -7 -5 -8 -9 -2 -9 6 0 11 -7 11 -15 0 -8 -5 -15
-11 -15 -7 0 -7 -3 -1 -8 14 -10 17 -32 5 -32 -7 0 -7 -6 -1 -18 7 -13 6 -23
-1 -30 -8 -8 -8 -12 -2 -12 6 0 11 -7 11 -15 0 -8 -5 -15 -11 -15 -6 0 -5 -4
2 -9 17 -11 17 -21 0 -32 -7 -5 -8 -9 -2 -9 6 0 10 -13 10 -30 0 -16 -4 -30
-10 -30 -6 0 -5 -4 2 -9 17 -11 17 -21 0 -32 -7 -5 -8 -9 -2 -9 6 0 11 -7 11
-15 0 -8 -5 -15 -11 -15 -7 0 -7 -3 -1 -8 14 -10 17 -32 5 -32 -7 0 -7 -6 -1
-18 7 -13 6 -23 -1 -30 -8 -8 -8 -12 -2 -12 6 0 11 -7 11 -15 0 -8 -5 -15 -11
-15 -6 0 -5 -4 2 -9 8 -4 14 -12 14 -16 0 -4 -6 -12 -14 -16 -7 -5 -8 -9 -2
-9 6 0 10 -13 10 -30 0 -16 -4 -30 -10 -30 -7 0 -8 -3 -1 -8 14 -10 17 -32 5
-32 -7 0 -7 -6 -1 -18 7 -13 6 -23 -1 -30 -9 -9 -9 -12 0 -12 14 0 12 -21 -3
-32 -6 -5 -6 -8 2 -8 12 0 12 -17 0 -37 -4 -6 -3 -14 2 -18 13 -7 10 -45 -4
-45 -6 0 -7 -3 0 -8 14 -10 17 -32 5 -32 -7 0 -7 -6 -1 -18 7 -13 6 -23 -1
-30 -8 -8 -8 -12 -2 -12 6 0 11 -7 11 -15 0 -8 -5 -15 -11 -15 -6 0 -5 -4 2
-9 17 -11 17 -21 0 -32 -7 -5 -8 -9 -2 -9 6 0 10 -13 10 -30 0 -16 -4 -30 -10
-30 -7 0 -8 -3 -1 -8 14 -10 17 -32 5 -32 -7 0 -7 -6 -1 -18 7 -13 6 -23 -1
-30 -9 -9 -9 -12 0 -12 14 0 12 -21 -3 -32 -6 -5 -6 -8 2 -8 12 0 12 -17 0
-37 -4 -6 -2 -15 4 -19 8 -4 7 -9 -2 -15 -9 -6 -10 -9 -2 -9 12 0 12 -24 0
-36 -4 -4 -3 -12 2 -18 14 -17 14 -28 -1 -37 -9 -6 -9 -9 -1 -9 6 0 10 -9 8
-20 -3 -15 2 -20 18 -20 12 -1 262 -1 554 -2 391 0 531 -4 526 -12 -5 -7 -2
-7 8 1 21 17 962 16 952 0 -5 -8 -2 -8 8 0 10 8 49 11 117 10 59 -1 102 2 102
7 0 6 7 1 16 -10 8 -10 13 -14 10 -7 -5 8 33 11 144 10 88 -1 150 2 150 7 0 6
7 1 16 -10 8 -10 13 -14 10 -7 -5 8 276 11 1140 12 631 0 1148 2 1151 4 9 10
7 167 -2 167 -7 0 -7 3 0 8 12 8 14 82 2 82 -5 0 -5 5 -1 11 10 18 10 139 -1
139 -6 0 -6 3 1 8 13 9 13 64 -1 74 -7 5 -6 8 0 8 13 0 14 80 2 80 -5 0 -5 5
-1 11 10 18 10 139 -1 139 -7 0 -7 3 0 8 12 8 14 82 2 82 -5 0 -5 5 -1 11 9
16 10 149 1 149 -5 0 -5 5 -2 11 10 15 11 129 2 129 -5 0 -5 5 -1 12 9 14 8
124 -1 138 -4 6 0 10 7 10 9 0 9 3 -2 10 -8 5 -10 10 -5 10 13 0 14 80 2 80
-5 0 -5 5 -1 12 9 14 9 103 -1 117 -3 6 0 11 7 11 9 0 9 3 -2 10 -8 5 -10 10
-4 10 6 0 11 13 10 30 -1 16 -5 30 -9 30 -5 0 -5 5 -1 11 9 16 11 169 1 169
-5 0 -5 5 -1 11 9 16 10 149 1 149 -5 0 -5 5 -1 11 9 16 10 149 1 149 -5 0 -5
5 -1 11 9 16 10 149 1 149 -5 0 -5 5 -2 11 10 15 11 129 2 129 -5 0 -5 5 -1
12 9 14 8 124 -1 138 -4 6 0 10 7 10 9 0 9 3 -2 10 -8 5 -10 10 -5 10 13 0 14
80 2 80 -5 0 -5 5 -1 12 9 14 9 103 -1 117 -3 6 0 11 7 11 9 0 9 3 -2 10 -8 5
-10 10 -4 10 6 0 11 13 10 30 -1 16 -5 30 -9 30 -5 0 -5 5 -1 11 9 16 11 169
1 169 -5 0 -5 5 -1 11 9 16 10 149 1 149 -5 0 -5 5 -1 11 9 16 10 149 1 149
-5 0 -5 5 -1 11 9 16 10 149 1 149 -5 0 -5 5 -2 11 10 15 11 129 2 129 -5 0
-5 5 -1 12 9 14 8 124 -1 138 -4 6 0 10 7 10 9 0 9 3 -2 10 -8 5 -10 10 -5 10
13 0 14 80 2 80 -5 0 -5 5 -1 12 9 14 9 103 -1 117 -3 6 0 11 7 11 9 0 9 3 -2
10 -8 5 -10 10 -4 10 6 0 11 13 10 30 -1 16 -5 30 -9 30 -5 0 -5 5 -1 11 9 16
11 169 1 169 -5 0 -5 5 -1 11 9 16 10 149 1 149 -5 0 -5 5 -1 11 9 16 10 149
1 149 -5 0 -5 5 -1 11 9 15 11 149 1 149 -4 0 -3 9 3 19 7 14 7 22 -1 27 -8 4
-7 9 2 15 7 4 10 11 6 15 -3 4 -1112 7 -2463 8 -1953 1 -2458 -2 -2466 -11z"/>
<path d="M1088 4902 c-14 -2 -32 -10 -38 -18 -7 -8 -17 -14 -23 -14 -24 0 -89
-83 -102 -132 -2 -5 -4 -10 -5 -13 -1 -3 -3 -9 -4 -14 0 -5 -4 -12 -7 -15 -3
-3 -3 -27 1 -54 5 -26 6 -50 3 -54 -2 -5 0 -8 5 -8 4 0 16 -16 25 -35 9 -20
24 -38 32 -41 8 -4 15 -12 15 -20 0 -8 7 -14 15 -14 8 0 15 -4 15 -10 0 -5 5
-10 12 -10 6 0 20 -8 31 -17 11 -10 17 -12 13 -5 -4 6 -2 12 3 12 6 0 11 -4
11 -9 0 -10 127 -7 153 4 9 4 17 11 17 17 0 5 4 6 10 3 12 -7 100 81 100 101
0 8 4 14 8 14 8 0 14 33 15 83 1 15 6 27 12 27 7 0 6 3 -1 8 -6 4 -16 28 -24
55 -7 26 -17 47 -23 47 -6 0 -8 3 -4 6 13 13 -71 79 -128 100 -23 8 -97 12
-137 6z"/>
<path d="M4766 4103 c-3 -4 -34 -8 -69 -10 -80 -3 -120 -8 -132 -15 -6 -3 -20
-4 -32 -3 -13 1 -23 -2 -23 -8 0 -5 -6 -7 -12 -4 -7 2 -27 -2 -44 -9 -17 -7
-34 -10 -38 -7 -3 4 -6 1 -6 -5 0 -7 -7 -12 -15 -12 -22 0 -163 -70 -190 -95
-6 -5 -29 -23 -50 -40 -51 -39 -125 -114 -125 -127 0 -5 -4 -6 -10 -3 -5 3
-10 -1 -10 -10 0 -9 -5 -21 -10 -28 -41 -48 -49 -61 -44 -68 3 -5 1 -9 -4 -9
-10 0 -38 -60 -34 -72 1 -5 -3 -8 -9 -8 -6 0 -9 -7 -5 -15 3 -8 1 -15 -4 -15
-6 0 -10 -9 -10 -19 0 -11 -4 -22 -9 -26 -6 -3 -8 -14 -6 -25 2 -11 0 -20 -4
-20 -4 0 -8 -6 -9 -12 -1 -7 -4 -40 -8 -73 -4 -33 -7 -73 -8 -90 -1 -16 -5
-33 -11 -37 -6 -5 -5 -8 3 -8 10 0 10 -5 2 -20 -6 -12 -7 -20 -1 -20 10 0 9
-19 -2 -37 -4 -6 -3 -14 1 -17 5 -3 10 -29 11 -58 1 -29 8 -76 15 -105 8 -28
11 -54 8 -57 -3 -3 0 -6 6 -6 7 0 12 -11 12 -25 0 -14 4 -25 10 -25 5 0 9 -3
9 -7 -4 -22 3 -43 17 -57 8 -9 12 -20 9 -26 -3 -6 1 -13 9 -16 9 -3 13 -10 10
-15 -3 -5 0 -9 7 -9 7 0 10 -3 6 -6 -3 -4 -1 -12 6 -20 28 -31 38 -44 33 -44
-16 0 137 -155 176 -178 16 -9 28 -20 28 -24 0 -4 7 -8 15 -8 9 0 18 -6 21
-14 3 -8 14 -13 25 -11 10 2 19 0 19 -4 0 -8 79 -46 110 -53 8 -2 17 -6 20
-10 3 -4 19 -9 35 -12 17 -3 44 -10 62 -15 17 -5 34 -7 37 -4 2 3 11 1 18 -3
7 -4 22 -9 33 -11 38 -5 260 -3 285 3 14 3 36 7 50 9 14 2 32 6 40 8 60 16 76
20 85 26 6 3 13 6 18 7 4 1 8 2 10 4 1 1 11 3 21 5 10 2 22 9 26 15 4 7 10 11
14 10 29 -7 245 167 229 184 -4 3 -2 6 3 6 5 0 18 14 28 30 14 25 15 34 5 46
-6 8 -14 12 -17 10 -2 -3 -10 0 -17 7 -7 7 -23 19 -35 27 -12 8 -29 21 -36 28
-8 7 -14 11 -14 7 0 -4 -7 1 -16 9 -21 22 -28 20 -44 -9 -7 -13 -17 -22 -22
-19 -4 3 -8 -1 -8 -9 0 -8 -19 -29 -41 -48 -23 -19 -50 -42 -60 -51 -11 -10
-22 -18 -26 -19 -5 0 -32 -12 -61 -25 -29 -13 -61 -26 -70 -28 -9 -1 -25 -6
-34 -11 -10 -4 -40 -8 -68 -9 -27 0 -50 -3 -50 -7 0 -9 -95 -4 -102 6 -5 6 -8
6 -8 -1 0 -8 -11 -9 -34 -4 -19 4 -37 5 -40 2 -4 -3 -6 0 -6 6 0 7 -5 12 -11
12 -5 0 -8 -4 -5 -9 3 -4 -16 -1 -42 7 -26 9 -48 19 -50 23 -2 4 -10 5 -18 2
-8 -3 -14 0 -14 7 0 6 -6 10 -12 7 -7 -2 -32 9 -55 25 -24 16 -43 26 -43 22 0
-4 -8 3 -19 14 -10 12 -21 19 -24 16 -3 -3 -8 4 -12 15 -3 12 -11 21 -16 21
-5 0 -18 9 -29 20 -11 11 -18 20 -16 20 2 0 -9 14 -25 31 -16 17 -29 38 -29
46 0 8 -4 12 -8 9 -8 -5 -38 62 -34 77 1 4 -3 7 -8 7 -6 0 -10 9 -10 20 0 11
-4 20 -9 20 -5 0 -8 11 -6 25 1 14 -2 25 -8 25 -5 0 -7 11 -5 25 3 13 2 22 -3
19 -4 -2 -8 4 -8 13 0 20 -10 126 -14 158 -2 11 -1 24 2 30 11 21 10 55 -2 48
-9 -5 -9 -3 -1 8 11 13 24 68 27 117 1 12 6 22 11 22 4 0 6 6 3 14 -3 8 1 20
8 26 8 7 13 15 12 19 -3 11 37 95 55 115 10 11 18 23 18 27 0 7 102 111 133
137 9 6 21 12 27 12 5 0 10 5 10 11 0 5 4 8 9 5 5 -3 14 1 21 9 7 8 16 13 20
10 4 -3 11 2 14 11 3 8 10 12 16 9 5 -3 16 -3 23 2 6 4 17 8 22 10 6 1 24 6
42 11 17 6 34 8 37 4 3 -3 6 0 6 5 0 6 8 10 18 8 9 -1 27 2 40 6 14 6 22 5 22
-2 0 -8 4 -8 13 -1 14 12 35 11 56 -2 10 -6 12 -5 7 2 -5 8 6 10 36 7 100 -11
145 -19 154 -28 4 -4 18 -7 31 -7 13 0 23 -5 23 -11 0 -5 5 -7 10 -4 6 3 10 2
10 -2 0 -5 10 -9 21 -10 12 -1 29 -9 38 -17 10 -9 22 -16 28 -16 13 0 108 -90
139 -131 26 -35 27 -36 47 -19 47 40 61 50 71 50 6 0 17 9 24 21 7 12 16 18
19 15 3 -3 12 2 20 10 12 12 13 18 3 29 -7 8 -9 15 -5 15 4 0 -4 11 -19 25
-14 13 -26 29 -26 35 0 5 -3 10 -7 10 -5 1 -37 28 -73 60 -35 33 -68 60 -72
60 -5 0 -26 11 -47 24 -21 14 -42 22 -45 19 -3 -4 -6 -2 -6 3 0 5 -10 11 -22
11 -13 1 -24 7 -26 13 -2 5 -14 10 -27 10 -13 0 -27 5 -30 10 -4 6 -11 8 -16
5 -5 -4 -15 -3 -21 2 -7 4 -22 9 -33 10 -11 1 -40 5 -65 8 -25 4 -60 6 -78 5
-21 0 -31 3 -27 10 7 11 2 14 -9 3z"/>
<path d="M2556 4093 c-1 -1 -20 -5 -41 -8 -91 -12 -155 -26 -155 -34 0 -4 -9
-8 -20 -9 -11 -1 -29 -3 -39 -4 -11 -1 -18 -5 -15 -9 2 -4 -19 -16 -46 -28
-28 -12 -50 -26 -50 -31 0 -6 -4 -9 -8 -7 -17 5 -142 -105 -142 -126 0 -6 -3
-7 -7 -4 -3 4 -17 -10 -29 -31 -13 -20 -24 -35 -25 -32 -1 3 -2 70 -3 150 -1
149 -7 180 -31 160 -10 -8 -15 -8 -20 0 -5 8 -11 8 -21 -1 -11 -9 -14 -9 -14
1 0 10 -3 10 -15 0 -8 -7 -15 -8 -15 -3 0 12 -63 11 -72 -2 -5 -6 -8 -5 -8 2
0 7 -7 10 -15 7 -13 -5 -15 -113 -15 -883 l0 -877 118 0 117 1 3 505 c3 568 3
590 16 590 5 0 7 3 3 6 -3 3 1 23 8 45 8 21 12 39 9 39 -2 0 3 11 12 25 9 14
12 25 8 25 -5 0 -4 4 3 8 6 4 13 14 15 22 3 15 14 31 40 60 9 10 14 21 11 24
-4 3 1 6 10 6 10 0 16 3 15 8 -6 17 125 123 161 128 8 2 18 9 22 16 5 7 9 10
9 6 0 -4 11 -3 25 2 33 12 75 22 98 22 9 -1 17 3 17 7 0 8 233 6 260 -1 8 -3
33 -8 55 -13 22 -4 46 -12 53 -18 6 -5 12 -6 12 -2 0 4 7 2 15 -5 8 -7 15 -9
15 -4 0 5 4 4 8 -1 4 -6 23 -22 42 -35 31 -21 70 -60 113 -111 7 -8 11 -21 9
-27 -2 -7 3 -15 12 -18 9 -3 14 -10 11 -14 -3 -5 -1 -11 5 -15 5 -3 10 -17 10
-31 0 -13 4 -24 8 -24 5 0 9 -6 9 -12 1 -7 4 -31 8 -53 3 -22 7 -56 8 -75 1
-19 7 -38 12 -42 6 -5 5 -8 -3 -8 -7 0 -10 -5 -7 -11 8 -12 12 -119 5 -119 -3
0 -3 -30 0 -67 3 -38 3 -92 0 -121 -3 -29 -2 -59 3 -67 5 -10 4 -15 -5 -15 -9
0 -9 -3 2 -11 11 -7 12 -12 3 -15 -7 -3 -10 -11 -7 -18 8 -22 9 -166 1 -166
-5 0 -6 -4 -2 -9 3 -5 6 -101 6 -214 l0 -203 117 0 117 1 0 140 c0 83 4 143
10 147 6 5 5 8 -4 8 -10 0 -11 3 -2 13 6 8 8 17 4 21 -4 3 -7 190 -8 414 -2
400 -5 459 -27 515 -6 15 -8 30 -5 34 4 3 1 15 -5 27 -7 11 -13 23 -13 26 -3
22 -40 100 -47 100 -5 0 -6 5 -3 10 3 6 1 10 -5 10 -6 0 -8 5 -5 10 3 6 -1 10
-9 10 -9 0 -16 6 -16 13 0 13 -110 132 -110 120 0 -5 -5 0 -11 10 -5 9 -17 17
-24 17 -8 0 -15 3 -15 8 0 16 -170 90 -192 84 -5 -1 -8 2 -8 7 0 4 -11 7 -25
6 -14 -2 -25 0 -25 4 0 4 -15 6 -32 6 -18 0 -37 2 -43 4 -9 5 -185 8 -189 4z"/>
</g>
</svg>
