<svg width="107" height="107" viewBox="0 0 107 107" fill="none" xmlns="http://www.w3.org/2000/svg">
<path fill-rule="evenodd" clip-rule="evenodd" d="M54.473 33.1191C54.473 34.0575 54.3893 34.9406 54.2775 35.8238L60.1711 40.3777C60.7018 40.7917 60.8415 41.5369 60.5063 42.144L54.92 51.6934C54.6686 52.135 54.1937 52.3833 53.7189 52.3833C53.5513 52.3833 53.3837 52.3558 53.2161 52.3006L46.2611 49.5406C44.8087 50.617 43.2445 51.5554 41.5407 52.2454L40.4793 59.5591C40.3955 60.2215 39.8089 60.7183 39.1106 60.7183H27.9379C27.2396 60.7183 26.6531 60.2215 26.5693 59.5591L25.5079 52.2454C23.804 51.5554 22.2398 50.6446 20.7874 49.5406L13.8324 52.3006C13.6927 52.3558 13.5251 52.3833 13.3576 52.3833C12.8548 52.3833 12.3799 52.135 12.1286 51.6934L6.54221 42.144C6.20703 41.5369 6.34669 40.7917 6.87739 40.3777L12.771 35.8238C12.6593 34.9406 12.5755 34.0299 12.5755 33.1191C12.5755 32.2083 12.6593 31.2976 12.771 30.4144L6.87739 25.8605C6.34669 25.4465 6.1791 24.7013 6.54221 24.0942L12.1286 14.5448C12.3799 14.1033 12.8548 13.8549 13.3296 13.8549C13.4972 13.8549 13.6648 13.8825 13.8324 13.9377L20.7874 16.6976C22.2398 15.6212 23.804 14.6828 25.5079 13.9929L26.5693 6.67906C26.6531 6.01668 27.2396 5.5199 27.9379 5.5199H39.1106C39.8089 5.5199 40.3955 6.01668 40.4793 6.67906L41.5407 13.9929C43.2445 14.6828 44.8087 15.5936 46.2611 16.6976L53.2161 13.9377C53.3558 13.8825 53.5234 13.8549 53.691 13.8549C54.1937 13.8549 54.6686 14.1033 54.92 14.5448L60.5063 24.0942C60.8415 24.7013 60.7018 25.4465 60.1711 25.8605L54.2775 30.4144C54.3893 31.2976 54.473 32.1807 54.473 33.1191ZM48.8867 33.1191C48.8867 32.5395 48.8588 31.9599 48.7471 31.1044L48.356 27.9856L50.8419 26.0537L53.8306 23.7078L51.8754 20.3683L48.3281 21.7758L45.3673 22.9626L42.8255 21.0306C41.7083 20.2027 40.591 19.5679 39.3899 19.0711L36.4292 17.8843L35.9823 14.7656L35.4516 11.0397H31.569L31.0104 14.7656L30.5635 17.8843L27.6027 19.0711C26.4575 19.5403 25.3123 20.2027 24.1113 21.0858L21.5974 22.9626L18.6925 21.8034L15.1452 20.3959L13.19 23.7354L16.2066 26.0537L18.6925 27.9856L18.3015 31.1044C18.2177 31.9323 18.1618 32.5671 18.1618 33.1191C18.1618 33.6711 18.2177 34.3059 18.3015 35.1614L18.6925 38.2802L16.2066 40.2121L13.19 42.5304L15.1452 45.8699L18.6925 44.4624L21.6533 43.2756L24.1951 45.2076C25.3123 46.0355 26.4296 46.6703 27.6307 47.1671L30.5914 48.3539L31.0383 51.4726L31.569 55.1985H35.4795L36.0381 51.4726L36.485 48.3539L39.4458 47.1671C40.591 46.6979 41.7362 46.0355 42.9373 45.1524L45.4511 43.2756L48.356 44.4348L51.9033 45.8423L53.8586 42.5028L50.8419 40.1845L48.356 38.2526L48.7471 35.1338C48.8309 34.3059 48.8867 33.6987 48.8867 33.1191ZM33.5242 22.0794C27.3513 22.0794 22.3515 27.0197 22.3515 33.1191C22.3515 39.2185 27.3513 44.1588 33.5242 44.1588C39.6971 44.1588 44.6969 39.2185 44.6969 33.1191C44.6969 27.0197 39.6971 22.0794 33.5242 22.0794ZM27.9379 33.1191C27.9379 36.155 30.4517 38.6389 33.5242 38.6389C36.5967 38.6389 39.1106 36.155 39.1106 33.1191C39.1106 30.0832 36.5967 27.5993 33.5242 27.5993C30.4517 27.5993 27.9379 30.0832 27.9379 33.1191Z" fill="black"/>
<path fill-rule="evenodd" clip-rule="evenodd" d="M94.4369 73.8809C94.4369 74.8193 94.3531 75.7025 94.2414 76.5857L100.135 81.1395C100.666 81.5535 100.805 82.2987 100.47 82.9059L94.8838 92.4552C94.6324 92.8968 94.1576 93.1452 93.6827 93.1452C93.5151 93.1452 93.3476 93.1176 93.18 93.0624L86.225 90.3025C84.7725 91.3788 83.2083 92.3172 81.5045 93.0072L80.4431 100.321C80.3593 100.983 79.7727 101.48 79.0744 101.48H67.9018C67.2035 101.48 66.6169 100.983 66.5331 100.321L65.4717 93.0072C63.7679 92.3172 62.2037 91.4064 60.7512 90.3025L53.7962 93.0624C53.6566 93.1176 53.489 93.1452 53.3214 93.1452C52.8186 93.1452 52.3438 92.8968 52.0924 92.4552L46.5061 82.9059C46.1709 82.2987 46.3105 81.5535 46.8412 81.1395L52.7348 76.5857C52.6231 75.7025 52.5393 74.7917 52.5393 73.8809C52.5393 72.9702 52.6231 72.0594 52.7348 71.1762L46.8412 66.6224C46.3105 66.2084 46.1429 65.4632 46.5061 64.856L52.0924 55.3067C52.3438 54.8651 52.8186 54.6167 53.2935 54.6167C53.4611 54.6167 53.6286 54.6443 53.7962 54.6995L60.7512 57.4594C62.2037 56.383 63.7679 55.4447 65.4717 54.7547L66.5331 47.4409C66.6169 46.7785 67.2035 46.2817 67.9018 46.2817H79.0744C79.7727 46.2817 80.3593 46.7785 80.4431 47.4409L81.5045 54.7547C83.2083 55.4447 84.7725 56.3554 86.225 57.4594L93.18 54.6995C93.3196 54.6443 93.4872 54.6167 93.6548 54.6167C94.1576 54.6167 94.6324 54.8651 94.8838 55.3067L100.47 64.856C100.805 65.4632 100.666 66.2084 100.135 66.6224L94.2414 71.1762C94.3531 72.0594 94.4369 72.9426 94.4369 73.8809ZM88.8506 73.8809C88.8506 73.3014 88.8226 72.7218 88.7109 71.8662L88.3199 68.7475L90.8058 66.8155L93.7945 64.4696L91.8393 61.1301L88.2919 62.5377L85.3312 63.7244L82.7894 61.7925C81.6721 60.9645 80.5548 60.3297 79.3538 59.8329L76.393 58.6462L75.9461 55.5275L75.4154 51.8016H71.5329L70.9743 55.5275L70.5273 58.6462L67.5666 59.8329C66.4214 60.3021 65.2762 60.9645 64.0751 61.8477L61.5613 63.7244L58.6564 62.5653L55.109 61.1577L53.1538 64.4972L56.1704 66.8155L58.6564 68.7475L58.2653 71.8662C58.1815 72.6942 58.1257 73.329 58.1257 73.8809C58.1257 74.4329 58.1815 75.0677 58.2653 75.9233L58.6564 79.042L56.1704 80.9739L53.1538 83.2923L55.109 86.6318L58.6564 85.2242L61.6171 84.0375L64.1589 85.9694C65.2762 86.7974 66.3935 87.4322 67.5945 87.9289L70.5553 89.1157L71.0022 92.2344L71.5329 95.9603H75.4433L76.002 92.2344L76.4489 89.1157L79.4096 87.9289C80.5548 87.4598 81.7 86.7974 82.9011 85.9142L85.415 84.0375L88.3199 85.1966L91.8672 86.6042L93.8224 83.2647L90.8058 80.9463L88.3199 79.0144L88.7109 75.8957C88.7947 75.0677 88.8506 74.4605 88.8506 73.8809ZM73.4881 62.8413C67.3151 62.8413 62.3154 67.7815 62.3154 73.8809C62.3154 79.9804 67.3151 84.9206 73.4881 84.9206C79.661 84.9206 84.6608 79.9804 84.6608 73.8809C84.6608 67.7815 79.661 62.8413 73.4881 62.8413ZM67.9017 73.8809C67.9017 76.9168 70.4156 79.4008 73.4881 79.4008C76.5606 79.4008 79.0744 76.9168 79.0744 73.8809C79.0744 70.845 76.5606 68.3611 73.4881 68.3611C70.4156 68.3611 67.9017 70.845 67.9017 73.8809Z" fill="black"/>
</svg>
