<svg width="94" height="94" viewBox="0 0 94 94" fill="none" xmlns="http://www.w3.org/2000/svg">
<path fill-rule="evenodd" clip-rule="evenodd" d="M58.6129 55.8321H61.7071L81.2513 75.4154L75.4154 81.2513L55.8321 61.7071V58.6129L54.7746 57.5163C50.3096 61.3546 44.5129 63.6654 38.2071 63.6654C24.1462 63.6654 12.7487 52.2679 12.7487 38.2071C12.7487 24.1463 24.1462 12.7488 38.2071 12.7488C52.2679 12.7488 63.6654 24.1463 63.6654 38.2071C63.6654 44.5129 61.3546 50.3096 57.5163 54.7746L58.6129 55.8321ZM20.5821 38.2071C20.5821 47.9596 28.4546 55.8321 38.2071 55.8321C47.9596 55.8321 55.8321 47.9596 55.8321 38.2071C55.8321 28.4546 47.9596 20.5821 38.2071 20.5821C28.4546 20.5821 20.5821 28.4546 20.5821 38.2071Z" fill="black"/>
</svg>
