<svg width="96" height="96" viewBox="0 0 96 96" fill="none" xmlns="http://www.w3.org/2000/svg">
<g id="supervisor_account_24px">
<path id="icon/action/supervisor_account_24px" fill-rule="evenodd" clip-rule="evenodd" d="M36 48C43.72 48 50 41.72 50 34C50 26.28 43.72 20 36 20C28.28 20 22 26.28 22 34C22 41.72 28.28 48 36 48ZM36 28C39.32 28 42 30.68 42 34C42 37.32 39.32 40 36 40C32.68 40 30 37.32 30 34C30 30.68 32.68 28 36 28ZM19.08 68H36.2C36.08 68.64 36 69.32 36 70V76H8V70C8 60.68 26.64 56 36 56C38.24 56 41 56.28 43.92 56.8C41.08 58.72 38.72 61.12 37.36 64.04C37.1401 64.04 36.9102 64.03 36.6803 64.02L36.68 64.02L36.6797 64.02C36.4498 64.01 36.2199 64 36 64C29.88 64 23.04 66 19.08 68ZM66 58C58.64 58 44 62.04 44 70V76H88V70C88 62.04 73.36 58 66 58ZM76 42C76 45.76 73.88 49 70.84 50.72C69.4 51.52 67.76 52 66 52C64.24 52 62.6 51.52 61.16 50.72C58.12 49 56 45.76 56 42C56 36.48 60.48 32 66 32C71.52 32 76 36.48 76 42Z" fill="black"/>
</g>
</svg>
